<svg width="50" height="50" viewBox="0 0 50 50" fill="none" xmlns="http://www.w3.org/2000/svg">
<g id="Frame 1707478209">
<g id="Group 1707480137">
<g id="Vector">
<path d="M39.2499 14.8977C37.5116 6.4503 29.2543 1.01147 20.8068 2.74972C13.5733 4.23821 8.3716 10.5903 8.33842 17.9751C8.33842 18.3269 8.35296 18.6871 8.38419 19.0682C3.23821 19.6129 -0.491888 24.226 0.0528203 29.372C0.557708 34.1416 4.58304 37.76 9.37942 37.7553H10.4725C10.4476 37.4097 10.4205 37.0661 10.4205 36.7142C10.4205 29.2397 16.4799 23.1803 23.9545 23.1803C31.4291 23.1803 37.4884 29.2397 37.4884 36.7142C37.4884 37.066 37.4613 37.4096 37.4363 37.7553H38.5295C44.8471 37.7725 49.9827 32.6651 50 26.3473C50.0166 20.2853 45.3011 15.263 39.2499 14.8977Z" fill="white" fill-opacity="0.1"/>
<path d="M39.0036 14.9484L39.0425 15.137L39.2347 15.1487C45.153 15.5058 49.7648 20.4179 49.7486 26.3467C49.7317 32.5255 44.709 37.5208 38.5302 37.5039H38.5295H37.7065C37.7244 37.2462 37.7397 36.9827 37.7397 36.7142C37.7397 29.1009 31.568 22.929 23.9545 22.929C16.341 22.929 10.1692 29.1009 10.1692 36.7142C10.1692 36.9828 10.1844 37.2462 10.2024 37.5039H9.37942H9.37918C4.71148 37.5085 0.794135 33.9872 0.302792 29.3455C-0.227302 24.3376 3.40272 19.8482 8.41065 19.3181L8.65478 19.2923L8.63472 19.0476C8.60405 18.6734 8.5898 18.3202 8.58979 17.9755C8.62273 10.7099 13.7406 4.46041 20.8574 2.99593C29.169 1.28566 37.2934 6.63695 39.0036 14.9484Z" stroke="#4A6CF7" stroke-opacity="0.3" stroke-width="0.502737"/>
</g>
<path id="Vector_2" d="M23.9557 48.1644C30.2803 48.1644 35.4074 43.0373 35.4074 36.7128C35.4074 30.3882 30.2803 25.2611 23.9557 25.2611C17.631 25.2611 12.5039 30.3882 12.5039 36.7128C12.5039 43.0373 17.631 48.1644 23.9557 48.1644Z" fill="#4A6CF7"/>
<g id="Group">
<path id="Vector_3" d="M23.9552 43.9996C23.3802 43.9996 22.9141 43.5335 22.9141 42.9585V30.4658C22.9141 29.8908 23.3802 29.4247 23.9552 29.4247C24.5301 29.4247 24.9963 29.8908 24.9963 30.4658V42.9585C24.9962 43.5335 24.5301 43.9996 23.9552 43.9996Z" fill="white"/>
<path id="Vector_4" d="M28.1216 35.6699C27.8453 35.6704 27.5801 35.5611 27.3845 35.3659L23.9573 31.9366L20.53 35.3659C20.1165 35.7653 19.4574 35.7538 19.0579 35.3403C18.6682 34.9368 18.6682 34.2972 19.0579 33.8938L23.2222 29.7295C23.6287 29.3231 24.2877 29.3231 24.6943 29.7295L28.8587 33.8938C29.2646 34.301 29.2636 34.9601 28.8563 35.3661C28.6613 35.5606 28.3971 35.6698 28.1216 35.6699Z" fill="white"/>
</g>
</g>
</g>
</svg>
